<?xml version="1.0" encoding="iso-8859-1"?>
<!-- Uploaded to: SVG Repo, www.svgrepo.com, Generator: SVG Repo Mixer Tools -->
<svg height="800px" width="800px" version="1.1" id="Layer_1" xmlns="http://www.w3.org/2000/svg" xmlns:xlink="http://www.w3.org/1999/xlink" 
	 viewBox="0 0 501.868 501.868" xml:space="preserve">
<path style="fill:#54C0EB;" d="M417.959,183.016c2.09,12.539,4.18,25.078,4.18,37.616c27.167,7.314,45.976,33.437,43.886,62.694
	c-2.09,33.437-31.347,58.514-64.784,56.424c-3.135,0-6.269-1.045-10.449-2.09c-6.269,11.494-13.584,20.898-21.943,31.347
	c9.404,3.135,18.808,6.269,29.257,6.269c53.29,4.18,99.265-36.571,103.445-89.861C505.731,235.261,468.114,190.33,417.959,183.016z"
	/>
<g>
	<path style="fill:#FFD15C;" d="M132.702,29.416c0,0,12.539,26.122-8.359,53.29c-5.224,6.269-8.359,13.584-10.449,20.898
		c-2.09,11.494-1.045,26.122,14.629,38.661c0,0-10.449-26.122,11.494-54.335c4.18-5.224,7.314-11.494,8.359-17.763
		C151.51,59.718,151.51,42.999,132.702,29.416z"/>
	<path style="fill:#FFD15C;" d="M218.384,12.697c0,0,15.673,34.482-10.449,67.918c-6.269,8.359-11.494,17.763-13.584,28.212
		c-3.135,14.629-2.09,34.482,18.808,50.155c0,0-12.539-34.482,15.673-70.008c5.225-6.269,9.404-14.629,11.494-22.988
		C243.461,51.359,242.416,30.461,218.384,12.697z"/>
	<path style="fill:#FFD15C;" d="M303.02,29.416c0,0,12.539,26.122-8.359,53.29c-5.224,6.269-8.359,13.584-10.449,20.898
		c-2.09,11.494-1.045,26.122,14.629,38.661c0,0-10.449-26.122,11.494-54.335c4.18-5.224,7.314-11.494,8.359-17.763
		C322.873,59.718,321.829,42.999,303.02,29.416z"/>
</g>
<path style="fill:#54C0EB;" d="M336.457,489.171H98.22c-19.853,0-29.257-24.033-13.584-37.616l15.673-13.584l117.029-103.445
	l117.029,103.445l15.673,13.584C364.669,464.093,356.31,489.171,336.457,489.171z"/>
<path style="fill:#84DBFF;" d="M432.588,237.35c0,119.118-96.131,216.294-216.294,216.294C97.176,453.644,0,356.469,0,237.35
	c0-20.898,3.135-40.751,8.359-59.559c2.09-6.269,4.18-12.539,6.269-18.808h402.286c2.09,6.269,4.18,12.539,6.269,18.808
	C429.453,196.599,432.588,216.453,432.588,237.35z"/>
<path style="fill:#F2F2F2;" d="M424.229,177.791H9.404c2.09-6.269,4.18-12.539,6.269-18.808h402.286
	C420.049,165.253,422.139,171.522,424.229,177.791z"/>
</svg>