<?xml version="1.0" encoding="iso-8859-1"?>
<!-- Uploaded to: SVG Repo, www.svgrepo.com, Generator: SVG Repo Mixer Tools -->
<svg version="1.1" id="Layer_1" xmlns="http://www.w3.org/2000/svg" xmlns:xlink="http://www.w3.org/1999/xlink" 
	 viewBox="0 0 501.551 501.551" xml:space="preserve">
<rect x="201.143" y="404.376" style="fill:#ACB3BA;" width="27.167" height="84.637"/>
<path style="fill:#CDD6E0;" d="M261.747,474.384h-94.041c-11.494,0-20.898,9.404-20.898,20.898v6.269h135.837v-6.269
	C282.645,483.788,273.241,474.384,261.747,474.384z"/>
<path style="fill:#F2F2F2;" d="M328.62,73.143L328.62,73.143H100.833l0,0c10.449,71.053,7.314,144.196-6.269,215.249
	c-2.09,12.539-4.18,25.078-4.18,34.482c0,67.918,55.38,123.298,123.298,123.298s123.298-55.38,123.298-123.298
	c0-10.449-1.045-21.943-4.18-34.482C320.261,217.339,317.127,145.241,328.62,73.143z"/>
<path style="fill:#84DBFF;" d="M307.722,208.98H120.686c-2.09,27.167-5.224,54.335-10.449,82.547
	c-2.09,11.494-3.135,22.988-3.135,32.392c0,59.559,48.065,107.624,107.624,107.624s107.624-48.065,107.624-107.624
	c0-9.404-1.045-19.853-3.135-32.392C312.947,263.314,309.812,236.147,307.722,208.98z"/>
<polygon style="fill:#CED4DF;" points="277.42,0 158.302,208.98 186.514,208.98 291.004,24.033 411.167,24.033 411.167,0 "/>
</svg>