<?xml version="1.0" encoding="iso-8859-1"?>
<!-- Uploaded to: SVG Repo, www.svgrepo.com, Generator: SVG Repo Mixer Tools -->
<svg height="800px" width="800px" version="1.1" id="Layer_1" xmlns="http://www.w3.org/2000/svg" xmlns:xlink="http://www.w3.org/1999/xlink" 
	 viewBox="0 0 501.551 501.551" xml:space="preserve">
<path style="fill:#F2F2F2;" d="M86.727,86.727l2.09,15.673l37.616,380.343c1.045,10.449,10.449,18.808,20.898,18.808h208.98
	c10.449,0,19.853-8.359,20.898-18.808L414.824,102.4l1.045-15.673C415.869,86.727,86.727,86.727,86.727,86.727z"/>
<path style="fill:#FF7058;" d="M414.824,26.122H86.727c-16.718,0-30.302,13.584-30.302,30.302l0,0
	c0,16.718,13.584,30.302,30.302,30.302h328.098c16.718,0,30.302-13.584,30.302-30.302l0,0
	C445.126,39.706,431.543,26.122,414.824,26.122z"/>
<polygon style="fill:#F2F2F2;" points="370.939,26.122 130.612,26.122 151.51,0 350.041,0 "/>
<polygon style="fill:#E2E2E2;" points="414.824,86.727 413.78,102.4 87.771,102.4 86.727,86.727 "/>
<g>
	<polygon style="fill:#FF7058;" points="391.837,326.008 399.151,243.461 102.4,243.461 109.714,326.008 	"/>
	<ellipse style="fill:#FF7058;" cx="250.775" cy="285.257" rx="78.367" ry="112.849"/>
</g>
</svg>