<?xml version="1.0" encoding="iso-8859-1"?>
<!-- Uploaded to: SVG Repo, www.svgrepo.com, Generator: SVG Repo Mixer Tools -->
<svg version="1.1" id="Layer_1" xmlns="http://www.w3.org/2000/svg" xmlns:xlink="http://www.w3.org/1999/xlink" 
	 viewBox="0 0 501.551 501.551" xml:space="preserve">
<circle style="fill:#FFD15C;" cx="138.971" cy="80.457" r="80.457"/>
<circle style="fill:#F8B64C;" cx="138.971" cy="80.457" r="42.841"/>
<path style="fill:#F2F2F2;" d="M138.971,80.457v400.196c0,11.494,9.404,20.898,20.898,20.898h236.147
	c11.494,0,20.898-9.404,20.898-20.898V80.457H138.971z"/>
<path style="fill:#E2E2E2;" d="M138.971,467.069v13.584c0,11.494,9.404,20.898,20.898,20.898h236.147
	c11.494,0,20.898-9.404,20.898-20.898v-13.584H138.971z"/>
<rect x="154.645" y="181.812" style="fill:#84DBFF;" width="246.596" height="256"/>
<path style="fill:#FF7058;" d="M413.78,0c-44.931,0-82.547,28.212-96.131,71.053l-33.437,110.759h21.943l31.347-104.49
	c10.449-33.437,40.751-55.38,75.233-55.38h30.302V0H413.78z"/>
</svg>