<?xml version="1.0" encoding="iso-8859-1"?>
<!-- Uploaded to: SVG Repo, www.svgrepo.com, Generator: SVG Repo Mixer Tools -->
<svg version="1.1" id="Layer_1" xmlns="http://www.w3.org/2000/svg" xmlns:xlink="http://www.w3.org/1999/xlink" 
	 viewBox="0 0 501.551 501.551" xml:space="preserve">
<path style="fill:#40596B;" d="M393.927,254.955v225.698c0,11.494-9.404,20.898-20.898,20.898H128.522
	c-11.494,0-20.898-9.404-20.898-20.898V254.955c0-48.065,24.033-92.996,64.784-119.118c9.404-6.269,19.853-11.494,30.302-14.629
	V44.931h96.131v75.233c10.449,4.18,20.898,8.359,30.302,14.629C369.894,161.959,393.927,206.89,393.927,254.955z"/>
<path style="fill:#FFD15C;" d="M308.245,0H194.351c-6.269,0-10.449,4.18-10.449,10.449v24.033c0,6.269,4.18,10.449,10.449,10.449
	h113.894c6.269,0,10.449-4.18,10.449-10.449V10.449C318.694,4.18,313.469,0,308.245,0z"/>
<rect x="202.71" y="44.931" style="fill:#334A5E;" width="96.131" height="15.673"/>
<rect x="107.624" y="269.584" style="fill:#84DBFF;" width="286.302" height="181.812"/>
<path style="fill:#FF7058;" d="M284.212,300.931c-9.404,0-17.763,3.135-24.033,9.404c0-8.359-3.135-17.763-9.404-24.033
	c-6.269,6.269-9.404,15.673-9.404,24.033c-6.269-6.269-14.629-9.404-24.033-9.404c0,17.763,15.673,32.392,33.437,32.392l0,0l0,0
	C268.539,334.367,284.212,319.739,284.212,300.931z"/>
<g>
	<circle style="fill:#FFFFFF;" cx="212.114" cy="347.951" r="19.853"/>
	<circle style="fill:#FFFFFF;" cx="250.775" cy="347.951" r="19.853"/>
	<circle style="fill:#FFFFFF;" cx="230.922" cy="382.433" r="19.853"/>
	<circle style="fill:#FFFFFF;" cx="270.629" cy="382.433" r="19.853"/>
	<circle style="fill:#FFFFFF;" cx="250.775" cy="415.869" r="19.853"/>
	<circle style="fill:#FFFFFF;" cx="289.437" cy="347.951" r="19.853"/>
</g>
</svg>